<svg width="14" height="18" fill="none" xmlns="http://www.w3.org/2000/svg"><path d="M8.376 0l-.368 1.724c-3.623.059-5.93 1.783-5.93 4.496 0 1.88 1.047 2.965 3.488 3.585.814.213 1.783.406 2.442.581 1.415.368 1.957.833 1.957 1.647 0 1.143-1.22 1.84-3.159 1.84-1.956 0-3.526-.968-4.262-2.635L.122 12.401c.814 1.938 2.597 3.294 4.844 3.76L4.578 18h1.918l.35-1.666c3.739-.039 6.142-1.86 6.142-4.67 0-1.937-1.202-3.119-3.837-3.777-.93-.233-1.57-.33-2.306-.504-1.279-.31-1.763-.698-1.763-1.415 0-1.124 1.104-1.802 2.965-1.802 1.53 0 2.79.697 3.662 2.034l2.17-1.53c-.891-1.416-2.306-2.384-3.992-2.752L10.294 0H8.376z" fill="#fff"/></svg>